<svg xmlns="http://www.w3.org/2000/svg" viewBox="0 0 500 500"><defs><style>.cls-1{fill:#fff;}</style></defs><title>Based_Icon_White</title><g id="Layer_2" data-name="Layer 2"><path class="cls-1" d="M175.5,77.5l-66,111V87.34a9.85,9.85,0,0,1,9.84-9.84Z"/><path class="cls-1" d="M226.43,77.5h84.06a81.39,81.39,0,0,1,81.4,81.4v2.17H235.06a26,26,0,0,1-24.68-33.92Z"/><path class="cls-1" d="M109.5,243H223.11a35.28,35.28,0,0,1,33.22,47.17L209.21,421.87H118.46a9,9,0,0,1-9-9Z"/><path class="cls-1" d="M363.56,250,250,421.87s104.9,12.8,138.78-42.17C424,322.65,405,274.27,363.56,250Z"/></g></svg>